<?xml version="1.0" encoding="UTF-8" standalone="no"?>
<svg
   viewBox="0 0 365.043 468.92303"
   version="1.1"
   id="svg1015"
   sodipodi:docname="dance.svg"
   width="365.043"
   height="468.92303"
   inkscape:version="1.1.2 (b8e25be8, 2022-02-05)"
   xmlns:inkscape="http://www.inkscape.org/namespaces/inkscape"
   xmlns:sodipodi="http://sodipodi.sourceforge.net/DTD/sodipodi-0.dtd"
   xmlns="http://www.w3.org/2000/svg"
   xmlns:svg="http://www.w3.org/2000/svg">
  <defs
     id="defs1019" />
  <sodipodi:namedview
     id="namedview1017"
     pagecolor="#ffffff"
     bordercolor="#666666"
     borderopacity="1.0"
     inkscape:pageshadow="2"
     inkscape:pageopacity="0.0"
     inkscape:pagecheckerboard="0"
     showgrid="false"
     inkscape:zoom="1.0644531"
     inkscape:cx="184.60183"
     inkscape:cy="233.92294"
     inkscape:window-width="1312"
     inkscape:window-height="916"
     inkscape:window-x="0"
     inkscape:window-y="38"
     inkscape:window-maximized="0"
     inkscape:current-layer="svg1015" />
  <path
     d="m -70.941,-21.874956 h 512 V 490.12504 h -512 z"
     fill="#000000"
     fill-opacity="0.1"
     id="path1009" />
  <g
     class=""
     id="g1013"
     transform="translate(-70.941,-21.874956)">
    <path
       d="m 250.344,21.885 c -1.224,0.032 -2.443,0.15 -3.656,0.35 -9.712,1.62 -18.018,8.555 -23.653,19.99 -5.635,11.434 -8.068,27.065 -5.308,43.61 2.76,16.542 10.134,30.538 19.175,39.524 9.042,8.986 19.15,12.848 28.862,11.228 9.71,-1.62 18.017,-8.555 23.652,-19.99 5.635,-11.435 8.068,-27.067 5.31,-43.61 -2.76,-16.544 -10.138,-30.54 -19.18,-39.525 -7.91,-7.863 -16.638,-11.802 -25.202,-11.578 z m 185.64,32.22 c -35.615,33.13 -82.033,58.62 -132.83,76.217 -7.837,12.763 -19.697,22.255 -34.316,24.694 -11.368,1.896 -22.54,-0.784 -32.383,-6.547 -55.808,11.324 -113.423,13.896 -165.514,7.39 42.767,37.097 106.85,54.638 169.626,50.964 -9.982,93.127 -47.653,188.14 -81.968,282.924 53.913,-39.23 109.785,-113.508 127.08,-175.496 27.11,53.623 33.926,92.79 49.646,176.547 h 0.002 c 34.354,-84.91 33.247,-202.718 -13.023,-301.91 56.437,-22.846 101.64,-67.225 113.68,-134.785 z"
       fill="#060101"
       fill-opacity="1"
       id="path1011" />
  </g>
</svg>
