<?xml version="1.0" encoding="UTF-8" standalone="no"?>
<!-- Uploaded to: SVG Repo, www.svgrepo.com, Generator: SVG Repo Mixer Tools -->

<svg
   fill="#000000"
   width="461.92307"
   height="570.76923"
   viewBox="0 0 30.024999 37.1"
   enable-background="new 0 0 52 52"
   xml:space="preserve"
   version="1.1"
   id="svg1012"
   sodipodi:docname="jump-to-top-svgrepo-com.svg"
   inkscape:version="1.1.2 (b8e25be8, 2022-02-05)"
   xmlns:inkscape="http://www.inkscape.org/namespaces/inkscape"
   xmlns:sodipodi="http://sodipodi.sourceforge.net/DTD/sodipodi-0.dtd"
   xmlns="http://www.w3.org/2000/svg"
   xmlns:svg="http://www.w3.org/2000/svg"><defs
   id="defs1016" /><sodipodi:namedview
   id="namedview1014"
   pagecolor="#ffffff"
   bordercolor="#666666"
   borderopacity="1.0"
   inkscape:pageshadow="2"
   inkscape:pageopacity="0.0"
   inkscape:pagecheckerboard="0"
   showgrid="false"
   inkscape:zoom="0.68125"
   inkscape:cx="229.72477"
   inkscape:cy="284.77064"
   inkscape:window-width="1312"
   inkscape:window-height="916"
   inkscape:window-x="0"
   inkscape:window-y="38"
   inkscape:window-maximized="0"
   inkscape:current-layer="svg1012" />
<g
   id="g1010"
   transform="translate(-11.025,-7.45)">
	<path
   d="M 11.4,21.6 24.9,7.9 c 0.6,-0.6 1.6,-0.6 2.2,0 l 13.5,13.7 c 0.6,0.6 0.6,1.6 0,2.2 L 38.4,26 c -0.6,0.6 -1.6,0.6 -2.2,0 L 27.1,16.6 C 26.5,16 25.5,16 24.9,16.6 l -9.1,9.3 c -0.6,0.6 -1.6,0.6 -2.2,0 l -2.2,-2.2 c -0.5,-0.6 -0.5,-1.5 0,-2.1 z"
   id="path1006" />
	<path
   d="M 11.4,39.7 24.9,26 c 0.6,-0.6 1.6,-0.6 2.2,0 l 13.5,13.7 c 0.6,0.6 0.6,1.6 0,2.2 l -2.2,2.2 c -0.6,0.6 -1.6,0.6 -2.2,0 l -9.1,-9.4 c -0.6,-0.6 -1.6,-0.6 -2.2,0 L 15.8,44 c -0.6,0.6 -1.6,0.6 -2.2,0 l -2.2,-2.2 c -0.5,-0.6 -0.5,-1.6 0,-2.1 z"
   id="path1008" />
</g>
</svg>
