<?xml version="1.0" encoding="UTF-8" standalone="no"?>
<!-- Uploaded to: SVG Repo, www.svgrepo.com, Generator: SVG Repo Mixer Tools -->

<svg
   fill="#000000"
   width="569.22388"
   height="461.90842"
   viewBox="0 0 36.999552 30.024047"
   data-name="Layer 1"
   version="1.1"
   id="svg828"
   sodipodi:docname="jump-to-right-svgrepo-com.svg"
   inkscape:version="1.1.2 (b8e25be8, 2022-02-05)"
   xmlns:inkscape="http://www.inkscape.org/namespaces/inkscape"
   xmlns:sodipodi="http://sodipodi.sourceforge.net/DTD/sodipodi-0.dtd"
   xmlns="http://www.w3.org/2000/svg"
   xmlns:svg="http://www.w3.org/2000/svg">
  <defs
     id="defs832" />
  <sodipodi:namedview
     id="namedview830"
     pagecolor="#ffffff"
     bordercolor="#666666"
     borderopacity="1.0"
     inkscape:pageshadow="2"
     inkscape:pageopacity="0.0"
     inkscape:pagecheckerboard="0"
     showgrid="false"
     inkscape:zoom="0.8675"
     inkscape:cx="286.45533"
     inkscape:cy="231.70029"
     inkscape:window-width="1312"
     inkscape:window-height="916"
     inkscape:window-x="0"
     inkscape:window-y="38"
     inkscape:window-maximized="0"
     inkscape:current-layer="svg828" />
  <path
     d="m 22.949777,0.37427064 13.6,13.50000036 a 1.57,1.57 0 0 1 0,2.2 l -13.6,13.5 a 1.57,1.57 0 0 1 -2.2,0 l -2.2,-2.2 a 1.57,1.57 0 0 1 0,-2.2 l 9.4,-9.1 a 1.57,1.57 0 0 0 0,-2.2 l -9.3,-9.1000004 a 1.57,1.57 0 0 1 0,-2.2 l 2.2,-2.19999996 a 1.66,1.66 0 0 1 2.1,0 z"
     id="path824" />
  <path
     d="M 4.8497768,0.37427064 18.649777,13.874271 a 1.57,1.57 0 0 1 0,2.2 l -13.8000002,13.5 a 1.57,1.57 0 0 1 -2.2,0 l -2.19999999,-2.2 a 1.57,1.57 0 0 1 0,-2.2 l 9.39999999,-9.1 a 1.57,1.57 0 0 0 0,-2.2 L 0.54977681,4.7742706 a 1.57,1.57 0 0 1 0,-2.2 L 2.7497768,0.37427064 a 1.66,1.66 0 0 1 2.1,0 z"
     id="path826" />
</svg>
